<?xml version="1.0" encoding="UTF-8"?>
<svg width="42px" height="42px" viewBox="0 0 42 42" version="1.1" xmlns="http://www.w3.org/2000/svg" xmlns:xlink="http://www.w3.org/1999/xlink">
    <title>ico-in</title>
    <g id="Page-1" stroke="none" stroke-width="1" fill="none" fill-rule="evenodd">
        <g id="web" transform="translate(-1533.000000, -37.000000)" fill="#747474">
            <g id="ico-in" transform="translate(1533.000000, 37.000000)">
                <path d="M21,0 C32.5979294,0 42,9.40207059 42,21 C42,32.5979294 32.5979294,42 21,42 C9.40207059,42 0,32.5979294 0,21 C0,9.40207059 9.40207059,0 21,0 Z M24.5754353,9.25383529 L23.7749647,9.25383529 C23.1504,9.25778824 22.3044706,9.26964706 21,9.28941176 L21,9.28941176 L19.2718148,9.28991435 L19.2718148,9.28991435 L19.1653375,9.29003948 L18.7711341,9.29074588 C17.4754588,9.29385882 17.0223529,9.30423529 16.1576471,9.33882353 C15.1694118,9.33882353 14.2305882,9.53647059 13.2917647,9.88235294 C11.7105882,10.4752941 10.4258824,11.76 9.83294118,13.3411765 C9.48705882,14.28 9.28941176,15.2188235 9.28941176,16.2070588 C9.28117647,16.4129412 9.27431373,16.5954902 9.26859477,16.771634 L9.26859477,16.771634 L9.26226641,16.9810154 C9.24968105,17.4327085 9.24420915,17.8868758 9.24183007,18.6410458 L9.24183007,18.6410458 L9.24183007,23.4577778 C9.24420915,24.2119477 9.24968105,24.666115 9.26226641,25.1178081 L9.26226641,25.1178081 L9.26859477,25.3271895 C9.27431373,25.5033333 9.28117647,25.6858824 9.28941176,25.8917647 C9.33882353,26.88 9.53647059,27.8188235 9.88235294,28.7082353 C10.4752941,30.2894118 11.76,31.5741176 13.3411765,32.1670588 C14.28,32.5129412 15.2188235,32.7105882 16.2070588,32.7105882 C16.4129412,32.7188235 16.5954902,32.7256863 16.771634,32.7314052 L16.771634,32.7314052 L16.9810154,32.7377336 C17.5021997,32.7522552 18.0266782,32.7573061 19.0115095,32.759063 L19.0115095,32.759063 L23.087314,32.759063 C24.0721454,32.7573061 24.5966238,32.7522552 25.1178081,32.7377336 L25.1178081,32.7377336 L25.3271895,32.7314052 C25.5033333,32.7256863 25.6858824,32.7188235 25.8917647,32.7105882 C26.88,32.7105882 27.8188235,32.5129412 28.7576471,32.1670588 C30.3388235,31.5741176 31.6235294,30.2894118 32.2164706,28.7082353 C32.5623529,27.7694118 32.76,26.8305882 32.76,25.8423529 C32.7945882,24.9776471 32.8049647,24.5245412 32.8080776,23.2288659 L32.8080776,23.2288659 L32.8089092,22.7281852 L32.8089092,22.7281852 L32.8090165,22.6183341 L32.8090165,19.3816659 C32.8089506,19.3072847 32.8088737,19.2352204 32.8087841,19.1653375 L32.8080776,18.7711341 C32.8049647,17.4754588 32.7945882,17.0223529 32.76,16.1576471 C32.76,15.1694118 32.5623529,14.2305882 32.2164706,13.2917647 C31.6235294,11.7105882 30.3388235,10.4258824 28.7576471,9.83294118 C27.8188235,9.48705882 26.88,9.28941176 25.8917647,9.28941176 C25.3976471,9.26964706 25.0379294,9.25778824 24.5754353,9.25383529 L24.5754353,9.25383529 Z M22.3860173,11.3649591 C22.4646924,11.3650098 22.5408654,11.3650706 22.6146822,11.3651435 L23.0304753,11.3657432 C23.9401307,11.3675585 24.4451481,11.3725505 24.9457976,11.3862786 L24.9457976,11.3862786 L25.1612611,11.3927131 C25.3425362,11.3985479 25.5305477,11.4055984 25.7435294,11.4141176 C26.4847059,11.4141176 27.2258824,11.5623529 27.9176471,11.8094118 C28.9552941,12.2047059 29.7458824,12.9952941 30.1411765,14.0329412 C30.3882353,14.7247059 30.5364706,15.4658824 30.5364706,16.2070588 C30.5739554,17.1441785 30.5830034,17.5978737 30.5851874,19.1213784 L30.5851874,19.1213784 L30.5851874,22.779798 C30.5830034,24.3033028 30.5739554,24.756998 30.5364706,25.6941176 C30.5364706,26.4352941 30.3882353,27.1764706 30.1411765,27.8682353 C29.7458824,28.9058824 28.9552941,29.6964706 27.9176471,30.0917647 C27.2258824,30.3388235 26.4847059,30.4870588 25.7435294,30.4870588 C25.5305477,30.4955781 25.3425362,30.5026285 25.1612611,30.5084634 L25.1612611,30.5084634 L24.9457976,30.5148979 C24.3736268,30.5305871 23.7957508,30.534866 22.6146822,30.536033 L22.6146822,30.536033 L19.3853178,30.536033 C18.2042492,30.534866 17.6263732,30.5305871 17.0542024,30.5148979 L17.0542024,30.5148979 L16.8387389,30.5084634 C16.6574638,30.5026285 16.4694523,30.4955781 16.2564706,30.4870588 C15.5152941,30.4870588 14.7741176,30.3388235 14.0823529,30.0917647 C13.0447059,29.6964706 12.2541176,28.8564706 11.8588235,27.8682353 C11.6117647,27.1764706 11.4635294,26.4352941 11.4635294,25.6941176 C11.4260446,24.756998 11.4169966,24.3033028 11.4148126,22.779798 L11.4148126,22.779798 L11.4148126,19.1213784 C11.4169966,17.5978737 11.4260446,17.1441785 11.4635294,16.2070588 C11.4635294,15.4658824 11.6117647,14.7247059 11.8588235,14.0329412 C12.2541176,13.0447059 13.0447059,12.2047059 14.0823529,11.8094118 C14.7741176,11.5623529 15.5152941,11.4141176 16.2564706,11.4141176 C16.5123529,11.4141176 16.7300723,11.4119975 16.9425669,11.4086355 L17.1545399,11.4048921 C17.8634443,11.3912512 18.6362902,11.3670656 20.6930157,11.3648669 L20.6930157,11.3648669 Z M21,14.9717647 C17.6894118,14.9717647 14.9717647,17.6894118 14.9717647,21 C14.9717647,24.3105882 17.6894118,27.0282353 21,27.0282353 C24.3105882,27.0282353 27.0282353,24.3105882 27.0282353,21 C27.0282353,17.6894118 24.3105882,14.9717647 21,14.9717647 Z M21,17.0964706 C23.1247059,17.0964706 24.9035294,18.8752941 24.9035294,21 C24.9035294,23.1741176 23.1741176,24.9035294 21,24.9035294 C18.8258824,24.9035294 17.0964706,23.1247059 17.0964706,21 C17.0964706,18.8752941 18.8752941,17.0964706 21,17.0964706 Z M27.2752941,13.2917647 C26.4837176,13.2917647 25.8423529,13.9331294 25.8423529,14.7247059 C25.8423529,15.5162824 26.4837176,16.1576471 27.2752941,16.1576471 C28.0668706,16.1576471 28.7082353,15.5162824 28.7082353,14.7247059 C28.7082353,13.9331294 28.0668706,13.2917647 27.2752941,13.2917647 Z" id="Fill-4"></path>
            </g>
        </g>
    </g>
</svg>