<?xml version="1.0" encoding="UTF-8"?>
<svg width="42px" height="42px" viewBox="0 0 42 42" version="1.1" xmlns="http://www.w3.org/2000/svg" xmlns:xlink="http://www.w3.org/1999/xlink">
    <title>ico-fb</title>
    <g id="Page-1" stroke="none" stroke-width="1" fill="none" fill-rule="evenodd">
        <g id="web" transform="translate(-1471.000000, -37.000000)" fill="#747474">
            <g id="ico-fb" transform="translate(1471.000000, 37.000000)">
                <path d="M21,0 C32.5979294,0 42,9.40207059 42,21 C42,32.5979294 32.5979294,42 21,42 C9.40207059,42 0,32.5979294 0,21 C0,9.40207059 9.40207059,0 21,0 Z M31.2282353,9.53647059 L10.7717647,9.53647059 C10.08,9.53647059 9.48705882,10.08 9.48705882,10.8211765 L9.48705882,31.2776471 C9.48705882,31.9694118 10.0305882,32.5623529 10.7717647,32.5623529 L21.7905882,32.5623529 L21.7905882,23.6682353 L18.7764706,23.6682353 L18.7764706,20.2094118 L21.7905882,20.2094118 L21.7905882,17.64 C21.7905882,14.6752941 23.6188235,13.0447059 26.2376471,13.0447059 C27.1270588,13.0447059 28.0164706,13.0941176 28.9058824,13.1929412 L28.9058824,16.3058824 L27.0776471,16.3058824 C25.6447059,16.3058824 25.3482353,16.9976471 25.3482353,17.9858824 L25.3482353,20.2094118 L28.8070588,20.2094118 L28.3623529,23.6682353 L25.3976471,23.6682353 L25.3976471,32.5623529 L31.2776471,32.5623529 C31.9694118,32.5623529 32.5623529,32.0188235 32.5623529,31.2776471 L32.5623529,10.8211765 C32.4635294,10.08 31.92,9.53647059 31.2282353,9.53647059 Z" id="Fill-2"></path>
            </g>
        </g>
    </g>
</svg>