<?xml version="1.0" encoding="UTF-8"?>
<svg width="303px" height="63px" viewBox="0 0 303 63" version="1.1" xmlns="http://www.w3.org/2000/svg" xmlns:xlink="http://www.w3.org/1999/xlink">
    <title>logo</title>
    <g id="Page-1" stroke="none" stroke-width="1" fill="none" fill-rule="evenodd">
        <g id="web" transform="translate(-55.000000, -41.000000)">
            <g id="logo" transform="translate(55.000000, 41.000000)">
                <path d="M202.428864,8.51291699 C203.629095,9.97127208 203.798416,12.1760589 202.935328,17.3245625 C203.384104,17.0717509 203.944511,16.9134624 204.64502,16.8827049 C204.677985,16.8812046 204.771636,16.878954 204.804601,16.878954 C205.568044,16.878954 206.264058,17.1355165 206.795246,17.6066312 C207.647844,16.9374683 208.480214,16.5796311 209.376266,16.5796311 C210.32776,16.5796311 211.204333,17.0072352 211.844905,17.7836743 C213.029402,19.2187737 212.774672,20.6268666 211.797705,22.0874722 C212.954481,22.2120025 213.772616,22.5143261 214.41169,23.248755 C215.317482,24.2907587 215.142917,25.5473146 215.085977,25.9599151 C214.94138,27.0019188 214.571271,27.7153425 214.088782,28.1962096 C214.70538,28.9486428 215.132428,29.7738437 215.182625,30.7790885 C215.238815,31.898361 214.794535,32.9696219 213.864019,33.9621135 C213.137288,34.7378024 211.983508,35.7685534 210.364471,35.7685534 L210.363722,35.7685534 C209.581549,35.7685534 208.863059,35.5352466 208.161051,35.1053919 C208.241217,36.9493409 208.133331,38.1113738 207.25451,39.0701073 C206.842446,39.5187165 206.088743,40.0603484 204.838316,40.0896055 L204.801632,40.0903279 L204.801632,40.0903279 L204.71095,40.0911059 L204.71095,40.0911059 C203.658314,40.0911059 202.797474,39.7565244 202.151657,39.0956135 C201.439161,38.3656857 201.117751,37.5112277 200.994132,35.9628507 C200.483921,36.6492678 200.0314,37.1571415 199.533926,37.4864717 C198.456565,47.7497206 197.050303,51.5531467 194.168101,52.3303359 C193.902133,52.4023535 193.628672,52.4383622 193.356709,52.4383622 C190.473759,52.4383622 189.087725,49.1960728 186.868572,42.1728627 C186.819873,42.5119453 186.774172,42.8375246 186.729219,43.1488504 C186.344126,45.8532589 186.058678,47.8554964 185.974767,48.8817463 C187.506897,49.5036477 187.757132,50.8877347 187.757132,51.7234382 C187.757132,54.3505778 185.875872,56.1847744 183.180972,56.1847744 C183.038623,56.1847744 182.891029,56.1802733 182.73819,56.1697708 C181.397858,56.0804991 180.226846,55.4998577 179.350274,54.4916122 C178.913471,53.9888004 178.549729,53.3781557 178.257551,52.6506377 C175.206393,54.2036164 170.834297,54.7181161 170.765478,54.7252941 C170.401364,54.7605527 170.05448,54.7950611 169.681375,54.7950611 C168.530439,54.7950611 167.570073,54.4305857 166.826505,53.7101702 C166.175618,54.3356993 165.256277,54.7774343 163.952559,54.7779569 L163.951061,54.7779569 C161.576822,54.7779569 160.130851,53.1508107 159.653606,49.9415293 L159.633939,49.8076217 L159.633939,49.8076217 L159.615,49.6733238 L159.562563,49.9855377 C158.829231,54.2045192 157.629925,55.4313839 155.476774,55.6166611 C155.347161,55.6279139 155.216799,55.6331651 155.086437,55.6331651 C153.133253,55.6331651 151.691028,54.5574032 150.771001,52.4223834 C149.217145,53.8469802 147.34937,54.531897 145.098001,54.531897 C144.82454,54.531897 144.547334,54.5221446 144.264133,54.5018897 C141.445905,54.3082132 138.658391,52.6063017 136.856424,49.2589619 C136.454439,51.3276104 134.77501,54.0330282 131.931502,54.2225217 C131.789902,54.232274 131.652048,54.2367751 131.516441,54.2367751 C126.606135,54.2367751 126.587404,48.1692978 126.574668,44.15357 C126.545449,34.4882166 127.075888,26.1334323 127.400295,21.9579157 C127.084129,21.9789208 126.76197,21.9924241 126.444306,21.9924241 C125.963265,21.9924241 124.815094,21.9924241 123.764597,21.5273147 L123.765963,21.4977536 C123.654904,24.1873791 123.418373,29.5010864 123.08092,34.9812753 L123.012091,36.0788047 L123.012091,36.0788047 L122.940614,37.1764045 C122.734388,40.2822441 122.496806,43.336321 122.232336,45.8914432 C122.454101,46.0324775 122.657136,46.2042693 122.836946,46.4038179 C123.877595,47.5590992 123.71277,49.1464857 123.659576,49.6678627 C123.359144,52.577071 121.161718,53.5140492 117.685396,54.1044429 C118.289256,54.7968615 118.964292,55.7863524 118.964292,57.3189756 C118.964292,59.8770985 116.739895,62.0383747 114.107179,62.0383747 C113.108486,62.0383747 111.622807,61.7330504 110.215046,60.277696 C109.049279,59.0714023 107.386787,55.5260391 105.856905,51.8381411 C105.734035,52.0714479 105.590187,52.3010038 105.420117,52.5268088 C104.27383,54.0519301 102.955224,54.3722581 102.050931,54.3722581 C100.285798,54.3722581 98.6322966,53.172716 97.1361291,50.8081403 C95.9104255,48.8696683 96.0168129,44.6821487 96.6311632,33.2081049 L96.7907444,30.2081245 C97.388612,18.7078243 98.4472423,12.7783806 102.575376,12.2862607 C102.832354,12.2555033 103.075098,12.2397494 103.302857,12.2397494 C104.416928,12.2397494 105.336206,12.6133404 106.033718,13.3507699 C106.998698,14.3717685 107.411511,15.85638 107.472946,18.9381304 C109.183387,16.7460967 110.4473,16.0086671 111.911252,16.0086671 C112.494135,16.0086671 113.057539,16.151952 113.594721,16.4362712 C114.797949,14.7753668 117.186422,14.1714698 118.811454,13.7603697 C119.114134,13.683851 119.416064,13.6073324 119.71275,13.5263127 C120.601311,13.2840037 121.448664,13.1609737 122.230837,13.1609737 C123.637438,13.1609737 124.589188,13.5576939 125.226401,14.0402007 C127.11948,13.3908466 129.771377,13.3078203 133.233625,13.1995331 L134.384408,13.1627742 C135.920283,13.1125119 137.245631,13.0697515 138.340224,13.0697515 C140.524913,13.0697515 142.583735,13.1852796 143.766734,14.5776187 C144.069096,14.9343305 144.388737,15.4680464 144.500605,16.2024752 C145.363572,15.3432306 146.147857,14.6638581 146.777725,14.1585666 C148.04913,13.1383182 149.375227,12.5989369 150.610671,12.5989369 C151.749466,12.5989369 152.747411,13.0542978 153.462155,13.8524921 C153.700403,13.7092072 153.949889,13.589178 154.210613,13.4736499 C154.503553,13.3453686 155.046729,13.1053102 155.744241,13.1053102 C157.963524,13.1053102 159.214874,14.8046281 159.960515,19.8263107 L160.009,20.1623238 L160.055939,19.8566007 C160.565598,16.6131223 161.532642,15.1888857 163.571213,14.8389823 C163.844673,14.792471 164.172826,14.7354571 164.553424,14.7354571 C165.495178,14.7354571 166.338785,15.0880429 166.993593,15.7557055 C167.042429,15.8054989 167.09054,15.8571501 167.137913,15.9109133 C167.675211,15.1612958 168.364775,14.798548 169.267813,14.6032749 L169.422898,14.5702669 C173.616213,13.663296 176.386034,13.0646503 178.269542,13.0646503 C178.824704,13.0646503 180.514168,13.0646503 181.590779,14.3099535 C182.035808,14.8260792 182.52579,15.7338002 182.322755,17.1276396 C181.9017,20.0285959 178.699587,21.0630978 176.495418,21.4321877 C176.21896,25.2671214 176.061627,27.9655284 175.97322,29.6894482 C176.346326,29.6676929 176.659495,29.6526892 176.922466,29.6526892 C177.277218,29.6526892 178.102788,29.6526892 178.865914,30.1156578 C180.22483,21.4963004 182.018795,19.1649701 184.284555,18.7754158 C184.454625,18.7469088 184.624695,18.7319052 184.794016,18.7319052 C187.035645,18.7319052 188.248612,20.3725547 190.3876,26.785116 C192.212962,9.37964803 194.528835,7.14688208 198.616842,7.10396731 L198.974456,7.1042506 C199.854452,7.11398232 201.369941,7.22589709 202.428864,8.51291699 Z M20.4483644,12.6821321 C23.9164464,12.6821321 26.9529847,13.3347911 28.0977739,13.6153594 C28.7418564,13.7727396 29.2950343,14.1287151 29.6977809,14.6121938 C31.9411309,13.5555468 34.6953525,13.1766301 36.3278192,13.0410195 C36.3892542,13.0357682 36.5188672,13.030517 36.5810514,13.030517 C37.3639581,13.030517 38.0848487,13.3235229 38.6306242,13.8141581 C39.2037307,13.4545563 39.8700986,13.2295497 40.6476752,13.0741026 C40.903155,13.0230902 41.155638,12.9975839 41.4006289,12.9975839 C42.3303955,12.9975839 43.1837429,13.3719251 43.8025884,14.0523408 C44.7495868,15.0935943 45.1092064,16.6074629 45.0470222,19.7589803 C45.2350733,19.4821629 45.4141339,19.2180986 45.580458,18.9712885 C46.4173228,17.7297362 47.7539092,16.0793343 49.6883632,16.0793343 C51.3313754,16.0793343 52.3712755,17.2803767 52.8155556,17.7935017 C54.8743781,20.1715807 53.3280136,22.3508613 51.3703342,25.1100332 C50.7476303,25.9870717 49.8184631,27.2631831 48.8526416,28.5797486 L48.2062912,29.4595166 C47.2375029,30.7763522 46.2920179,32.0539489 45.6396454,32.9336881 C46.3439005,34.2615114 47.5448803,36.6013311 49.121213,39.9508967 C50.9530256,34.1294793 53.5040774,26.830202 55.2924359,22.9630104 C57.9618625,17.191105 60.0611422,13.8497914 62.8931469,13.8497914 C62.9980359,13.8497914 63.1021758,13.8542925 63.2055664,13.8640449 C64.4675725,13.9814749 65.4917905,14.4761735 66.2729697,15.3421941 C66.3703585,15.1044521 66.4998426,14.8629656 66.6633093,14.6196289 C67.3158691,13.6473922 68.3317946,13.0885061 69.4496123,13.0885061 C70.9764973,13.0885061 72.5191158,14.1170065 73.9118927,16.06148 C74.041072,16.2420989 74.1766781,16.4316916 74.3142425,16.6296417 C75.9586307,14.5139273 78.2756251,13.0885061 81.1067579,13.0885061 C85.4154507,13.0885061 88.8782881,15.9797101 90.8561962,21.2287381 C91.5784323,23.1447046 91.3566668,25.6998268 90.3407413,27.1716851 C89.7129054,28.0816567 88.7704022,28.6037838 87.755226,28.604534 L87.7537276,28.604534 C86.6096876,28.604534 85.5765303,27.9886341 84.6834749,26.7748385 C84.4759444,26.49352 84.2646678,26.2001986 84.0496453,25.9031263 C83.3603743,24.9488939 82.1841184,23.3194972 81.3929552,22.6143255 C80.1694992,25.1236865 80.1739944,26.6600606 83.2202725,29.5212572 C83.9147879,30.1739162 84.6257859,30.8078205 85.3225489,31.4297219 C88.7711515,34.5092217 92.0294552,37.4169297 92.0294552,41.2076027 C92.0294552,45.9645109 89.9039533,47.7109362 84.6864717,50.8369473 C79.179796,54.1370008 76.6272457,54.8114151 74.0784415,54.8616773 L73.9053745,54.8631777 C72.2368893,54.8631777 70.9272744,54.3598051 70.0132411,53.3665632 C69.4321759,52.7352066 69.0511888,51.9598881 68.8657665,51.0236975 C68.3397406,51.2698943 67.7559471,51.4016848 67.1598841,51.4016848 C65.3355636,51.4016848 63.8199166,50.2118951 63.3891223,48.4392135 C63.0841948,47.1879088 62.0892471,40.5360392 61.6479639,37.0064298 C61.3969793,37.5113027 61.089055,38.2059718 60.7324322,39.1497016 C59.7187543,41.8323548 58.5777112,44.5375135 57.5715254,46.9245947 C57.3300762,47.4971205 57.077714,48.0956081 56.8265497,48.6969932 L56.5265026,49.4185699 C55.7816979,51.2186077 55.0912737,52.9616897 54.7822255,54.0250736 C55.5793824,54.4301722 56.7781145,55.2381189 56.8725147,56.947035 C56.9114735,57.6477056 57.0021276,59.2906057 55.7749256,60.589922 C54.8841178,61.5336518 53.5572711,62.0115182 51.8325953,62.0115182 C48.4544183,62.0115182 46.1431129,58.7017123 43.2714002,51.7730252 C42.5042116,53.3416572 41.3017335,54.4654308 39.4144795,54.4654308 C39.1222886,54.4654308 38.8233548,54.4324228 38.5274178,54.3686572 C37.2962778,54.1005444 36.4040108,53.404436 35.7677669,52.3064075 C34.743746,53.1209717 33.4871032,53.5261835 32.7451085,53.7654354 C31.068382,54.3063171 29.6366463,54.4195946 28.7308543,54.4195946 C28.5675271,54.4195946 28.4206824,54.4158437 28.2910695,54.4105925 C27.5683995,54.3796923 26.9143676,54.0918297 26.4199819,53.6279235 C25.736816,54.1312902 24.9262091,54.4498202 23.9681417,54.5370733 C23.720154,54.5595787 23.4811568,54.5700813 23.2526484,54.5700813 C19.9021921,54.5700813 18.3595737,52.3337868 17.4380484,50.9969613 C17.2889561,50.7816589 17.144359,50.5701073 16.9945175,50.3743097 C16.4535896,49.6706383 16.3771704,48.7134053 16.7989743,47.9324651 C18.2164751,45.3053254 20.3090118,44.3090829 20.5427646,44.2040573 C20.7300665,44.1200368 20.9233621,44.0637731 21.1166576,44.0337658 C21.0328012,39.4838163 20.715844,32.8819699 20.2609931,27.2785345 C20.0716962,27.6469235 19.7947464,28.0202362 19.3910827,28.3358936 C20.8737645,29.9825446 20.8348057,32.0342941 19.2652158,33.7484615 C18.6418751,34.4288772 17.598229,35.5691548 15.9394834,35.5691548 C14.8396466,35.569905 13.9308578,35.0552797 13.2910345,34.5961679 C13.3120124,35.3666055 13.3210028,36.0042608 13.3075171,36.3268393 C13.1816502,39.3515758 11.3490885,39.9862303 9.83419075,39.9862303 C8.85422723,39.9862303 7.9828988,39.6216415 7.31460564,38.9322237 C6.84560169,38.4483559 6.50321382,37.8429585 6.27770234,37.077022 C5.76524435,37.8144515 4.98157322,38.4618592 3.73863783,38.4618592 C3.36927849,38.4618592 2.99392549,38.3943427 2.62231853,38.2615604 C1.44306579,37.8399577 0.585972314,36.9877502 0.208371691,35.8617261 C-0.304086297,34.3313534 0.129704894,32.4949063 1.49850715,30.4026468 C1.84539026,29.8722677 2.18328289,29.3696453 2.50169611,28.9037819 C1.70453924,28.5294407 0.983801542,27.8272698 0.755293228,26.5129498 C0.539521444,25.2691469 0.974811051,24.435694 1.37788473,23.9555771 C1.46179598,23.856553 1.54870406,23.7650307 1.63935818,23.6817604 C0.610696164,22.3036749 0.309514715,20.7170385 1.67906618,18.7748156 C2.35485142,17.8160822 3.32882128,17.2879536 4.42266436,17.2879536 C5.24454508,17.2879536 5.9974987,17.5805248 6.7279761,18.0621421 C7.18124669,17.4064825 7.92146378,16.9286161 9.09622128,16.7538235 C9.28127555,16.726817 9.45883775,16.7140639 9.62815866,16.7140639 C10.4897474,16.7140639 11.2846566,17.0418937 11.8795275,17.6390391 C12.700659,16.9136124 13.548762,16.5152655 14.4987572,16.5152655 C14.9624008,16.5152655 15.4141796,16.6174351 15.8322032,16.8142399 C15.8869915,16.3188674 15.9640685,15.768465 16.0722429,15.198995 C16.332218,13.8261607 17.4792548,12.8104134 18.8630412,12.7286435 C19.3979754,12.6963856 19.9284144,12.6821321 20.4483644,12.6821321 Z M178.072428,36.3635597 L178.023842,36.3888559 C177.141422,36.8188288 176.115294,37.019404 175.182806,37.1290096 C175.164742,37.7708326 175.160728,38.5587837 175.159836,39.1780168 L175.159581,39.6601259 L175.159581,39.6601259 C175.159581,42.0779646 175.073422,44.6548421 174.994006,46.5257976 L175.016482,46.5220467 L175.016482,46.5220467 C175.843036,46.3780013 176.6308,46.2408726 177.352028,46.2011739 C177.358222,45.2939469 177.400264,44.315477 177.476505,43.2643785 C177.661436,40.7138214 177.860005,38.4220127 178.072428,36.3635597 Z M150.436854,22.5921201 C149.79778,23.442077 149.156459,24.4533233 148.573575,25.7098792 C146.47954,30.2169766 145.844961,37.5762685 145.94985,42.9595793 C145.964085,43.7090118 146.000047,44.3174099 146.045749,44.8102799 C145.977571,43.3189168 146.030015,41.545485 147.760685,39.9513468 C148.343568,39.414216 149.042579,39.0683818 149.771558,38.9491028 C149.857717,31.4367736 150.078733,26.2342569 150.436854,22.5921201 Z M114.892349,22.4647391 C114.054735,24.2614265 112.60277,26.501472 110.715517,29.4106803 C110.044976,30.4451822 109.306257,31.5847097 108.504605,32.8382649 C109.462841,35.1030663 110.336418,37.0580423 111.120089,38.8112192 C111.95096,40.6716722 112.725641,42.4053443 113.456118,44.1847776 C113.580486,34.9410269 114.621136,26.7205253 115.236984,22.604273 C115.11861,22.5637632 115.003981,22.5172519 114.892349,22.4647391 Z M71.5736145,26.6347747 C71.1095063,26.7962073 70.6285653,26.8881161 70.1358864,26.8881161 C69.6968498,26.8881161 69.2750765,26.815645 68.8809914,26.6756986 C68.9665798,27.3981073 69.0530748,28.1404629 69.1389763,28.8881196 L69.2404054,29.7757934 L69.2404054,29.7757934 L69.3407539,30.6636829 C69.4902039,31.9933056 69.6342358,33.3076354 69.7648788,34.5345779 C70.2033067,38.6589449 70.5741348,41.7598199 70.9564465,43.6972131 C71.7335633,42.9493813 72.6287894,42.5048768 73.4925612,42.3928913 C73.5884597,42.3801382 73.7450441,42.3703858 73.8416919,42.3703858 C75.2457069,42.3703858 76.0630924,43.3441229 76.5673091,44.1678235 C78.220061,43.3066138 80.8303003,41.915025 82.2365629,41.1543397 C82.2283216,41.1460877 82.2200803,41.1385859 82.211839,41.1303339 C81.100015,40.1010833 79.1071228,37.9510598 77.1809101,35.8723036 C76.1372639,34.7462795 75.1400687,33.6697673 74.3886134,32.888077 C72.2704425,30.6840812 71.7098565,28.7428772 71.5736145,26.6347747 Z M140.152538,21.5877936 L139.99702,21.6131329 C138.938836,21.7776786 137.670492,21.8452982 136.163026,21.8723948 C136.429818,23.6795094 136.653101,25.7240983 136.792579,28.4587595 C137.72151,25.8127102 138.90266,23.5273514 140.152538,21.5877936 Z M28.3192393,21.6214249 L28.3142949,21.5777981 C28.4390085,22.5680044 28.5904604,23.8221715 28.7509307,25.2666969 C28.8939413,24.1853381 29.0481123,23.1350201 29.213344,22.1167293 C28.8839655,21.9913321 28.5852719,21.8255905 28.3192393,21.6214249 Z M17.4232245,21.0689 L17.3940283,21.1497828 C17.2768189,21.4607196 17.1252292,21.7775467 16.9426723,22.1033761 C18.0072963,22.1941482 19.0179773,22.4649641 19.7769246,23.2466545 C19.8183788,23.2893962 19.860541,23.3353389 19.9028539,23.3845674 C19.8355191,22.7383692 19.765964,22.1232265 19.6946616,21.5447901 C19.1297591,21.4690216 18.6405265,21.3962539 18.23071,21.3264869 C17.9444468,21.2779311 17.6736233,21.1899963 17.4232245,21.0689 Z" id="Fill-28" fill="#000000"></path>
                <path d="M199.134382,23.3674906 C199.46769,21.6160542 201.162692,23.9513027 201.440573,25.0080101 C199.439977,25.5918222 198.801074,25.1189269 199.134382,23.3674906 M197.939717,31.6472803 C197.939717,31.6472803 198.383877,28.677258 198.550906,27.7044876 C198.717934,26.7317172 199.412263,27.0374879 201.440573,26.7594464 C201.440573,26.7594464 200.606929,28.2051121 197.939717,31.6472803 M105.228449,19.589572 L105.22858,20.0752133 C105.220963,21.8241371 105.129055,24.0939346 104.969433,27.0260964 C109.837227,18.6278955 111.404148,17.3958196 112.97107,18.7395618 C114.537991,20.0833039 111.739703,23.5547002 105.976847,32.6243974 C109.222292,40.4065604 111.42512,44.3823283 113.400999,50.5404594 C113.715249,48.8483952 114.236632,48.6603881 115.291825,48.4431683 L115.566933,48.3873675 C115.614701,48.3776701 115.663443,48.3677002 115.713183,48.3573469 C115.433048,33.7440576 117.895039,20.251178 117.895039,20.251178 C117.895039,20.251178 115.265277,21.4832539 115.097499,19.1315178 C114.961463,17.2247047 116.848238,16.6067716 118.879354,16.0828758 L119.286945,15.9789965 C119.627281,15.8928852 119.968147,15.8071734 120.300847,15.7163294 C122.685627,15.0658904 124.808274,15.4652869 124.329123,17.5261657 C125.166633,15.8502966 127.336792,15.6541066 133.297309,15.4678157 C140.058591,15.2564743 142.594727,15.0451328 142.256176,17.1173285 C141.918374,19.1887748 141.537878,19.6541758 133.508529,19.6541758 C134.100244,22.9524519 134.649266,26.4620695 134.691959,34.4960436 C134.713738,38.6675301 134.735517,42.0182941 134.739681,44.4121622 L134.739654,45.8648176 C134.736463,47.2453833 134.722611,48.1371101 134.691959,48.4925455 C134.607321,49.4653158 133.677055,51.8327901 131.775328,51.9601946 C129.8736,52.0868496 128.838473,50.9881736 128.817501,44.1368125 C128.774808,30.3096836 129.8736,19.3581478 129.8736,19.3581478 C129.8736,19.3581478 123.693097,20.7094508 124.025216,18.4334686 L124.052742,18.2960509 C123.24253,19.9115018 121.58839,19.63514 121.58839,19.63514 L121.587445,19.6602363 C121.569206,20.142788 121.287785,27.5073824 120.817513,35.0865146 L120.768193,35.8710546 C120.751531,36.1326408 120.734647,36.3942087 120.717545,36.655485 L120.665585,37.4381654 C120.402543,41.3444585 120.091032,45.1236161 119.74134,47.8529752 C120.972706,47.3493529 121.58839,47.7975168 121.420612,49.4207992 C121.252086,51.0448311 120.180257,51.5484534 113.968746,52.3323654 C114.788909,55.2986405 116.714604,55.3346136 116.714604,57.2966419 C116.714604,59.2594197 114.004699,60.9359123 111.829584,58.6883481 C110.866319,57.6926663 109.30151,54.2619405 107.856872,50.7481995 L107.578959,50.0677156 C105.876806,45.8727956 104.412172,41.7757834 104.412172,41.7757834 C103.663166,46.8427329 104.944716,49.405061 103.626465,51.1564974 C102.387608,52.802263 100.766009,52.3181261 99.0380506,49.5886733 C97.9752104,47.909183 98.5347182,40.0146044 99.0380506,30.3288692 C99.541383,20.643134 100.492621,14.8207511 102.843004,14.5404613 C104.525994,14.3402966 105.20473,15.0296865 105.228449,19.589572 Z M41.1062918,15.3000916 C43.1623147,14.8893996 43.1346014,18.2521274 42.2425347,27.8007154 C42.2425347,27.8007154 42.3712997,27.6166512 42.5923275,27.2999709 L42.7529473,27.0697685 C43.3023236,26.2821549 44.2267437,24.9544533 45.1827654,23.5707277 L45.4853168,23.1324641 C46.191852,22.1081383 46.8959167,21.0810599 47.460114,20.2448827 C49.3131561,17.496694 50.2404262,18.2521274 51.1324929,19.2826045 C52.0253087,20.3130815 51.4073783,21.2064115 49.5535872,23.8167036 C48.8049408,24.8708601 47.5917322,26.5299185 46.4112828,28.13338 L46.0753326,28.5894285 C44.5714342,30.6297037 43.1999843,32.4740886 43.0179717,32.7187825 L42.9975332,32.746256 C42.9975332,32.746256 45.6063229,37.348554 49.5880415,46.3478041 C51.0980386,40.6805549 54.9771434,29.0372879 57.345502,23.9193766 C59.7146096,18.8022148 61.5339464,15.9858272 63.0094892,16.1229743 C64.485781,16.2601215 65.3441425,17.3250727 65.7216418,19.6947953 C66.0991411,22.0645179 66.9230482,28.9683396 67.5409786,34.772736 C68.158909,40.5771324 68.6045678,43.9773321 69.1543386,45.7295179 C69.7033604,47.4809542 69.2569525,47.7559979 68.4330454,48.6141043 C67.6091382,49.4729601 65.9276186,49.3013388 65.5838246,47.8931451 C65.2407796,46.4849513 63.7989421,36.6275948 63.6963282,34.9443573 C63.5929653,33.2618693 61.8769914,33.6051118 61.2246067,33.8801555 C60.572222,34.1544498 59.645701,35.7005401 58.6435302,38.3490536 L58.6435302,38.3490536 L58.3676527,39.0711782 C58.2283923,39.4321649 58.0872776,39.7928902 57.9448857,40.1526868 L57.6585701,40.8708441 C54.7818057,48.0360807 51.5480798,54.6519226 52.5743305,55.3807789 C53.4619032,56.0103068 54.588409,56.062018 54.6430865,57.0490277 C54.6977639,58.0360373 54.7524414,59.7357625 51.8477942,59.7357625 C48.9431469,59.7357625 46.421991,54.1427076 42.4215472,43.2301425 C42.3114433,51.0168021 40.6126965,52.496942 39.0233047,52.1514511 C36.069223,51.5091828 36.4474713,43.6685637 36.9410666,33.2498783 C37.7242727,16.7012706 38.7721981,15.7887322 40.9702713,15.3278722 Z M198.810771,9.37953758 C201.150328,9.39528483 202.072429,10.0570991 200.195724,19.6967438 C202.054758,21.6415351 203.36552,22.825647 203.36552,22.825647 C203.36552,19.4854023 203.745266,19.1893744 204.717477,19.1466564 C205.689687,19.1046879 205.689687,20.0347403 205.478467,22.3602461 C208.013854,19.0619699 209.281922,18.2585725 210.084857,19.2313429 C210.887792,20.2041133 209.408504,21.6835037 206.703842,24.2630688 L206.703842,24.2630688 L207.317333,24.2626078 C207.613967,24.2621972 207.895587,24.2615924 208.162883,24.2611342 L209.157306,24.2608916 C212.458627,24.2686165 213.006127,24.3998557 212.831464,25.6585222 C212.620244,27.1806305 212.028529,26.9273205 209.197285,26.715979 C211.775365,29.1681398 214.141476,30.3522516 212.197805,32.4244474 C210.253384,34.4958937 209.112647,33.7352142 205.605049,29.2108577 C205.731631,35.8493785 206.57726,37.7941698 204.759421,37.8368878 C202.942331,37.8788563 203.073407,36.4414344 203.238189,28.8721118 C198.75913,34.9193261 198.589854,36.230093 197.449117,35.511382 L197.449117,35.511382 L197.376638,36.2581976 C196.700139,43.0934324 195.681501,49.5706263 193.561025,50.1419084 C191.363439,50.7339643 189.461712,42.6572722 185.996059,31.9170779 C183.883111,47.7317161 183.291396,49.591821 183.925056,50.3952184 C184.559464,51.1986158 185.488981,50.4799048 185.488981,51.7059852 C185.488981,52.9320656 184.770684,54.031491 182.868957,53.904836 C180.787468,53.76619 179.102203,51.6437819 179.699161,43.4187011 C180.967229,25.9545501 182.958837,21.2960443 184.644102,21.0075107 C186.122641,20.7534512 187.517291,24.7284698 191.616604,38.5136302 C193.602969,10.7319679 195.873957,9.37923251 198.716436,9.37923251 Z M152.229722,16.2289449 C152.694855,17.8357397 149.059926,19.3158795 146.524539,24.7702884 C143.989152,30.2254468 143.608657,38.6401353 143.693295,42.9951188 C143.777932,47.3508518 144.538174,48.5769322 145.67966,48.7882737 C146.820397,48.9996151 148.384322,46.6321409 148.299685,45.0673146 C148.215047,43.5024883 148.215047,42.5724359 149.271895,41.5996655 C150.327994,40.6276446 151.6807,41.304387 151.976558,42.8264953 C152.095545,19.0569187 153.456772,16.4460624 154.839032,15.6811376 L154.927278,15.6346335 C154.956695,15.6198437 154.98611,15.6057036 155.015511,15.5920271 L155.10366,15.5522025 L155.10366,15.5522025 L155.167824,15.5241076 L155.167824,15.5241076 L155.233528,15.4961429 C155.277825,15.4777303 155.323092,15.4599661 155.369214,15.4439734 L155.439026,15.4214533 C156.495404,15.1077933 157.956326,15.9752601 158.526619,30.8175027 C160.175183,30.7747847 161.653722,30.6061612 161.653722,30.6061612 C161.949579,19.4852525 162.456657,17.3283702 163.935945,17.0750602 L163.98038,17.0674051 L163.98038,17.0674051 L164.069556,17.0521919 C164.084448,17.0497002 164.099354,17.0472414 164.11427,17.0448322 L164.203886,17.0311023 C164.218838,17.0289569 164.233798,17.0268942 164.248762,17.0249304 L164.338585,17.0144686 L164.338585,17.0144686 L164.428416,17.0071771 C164.503251,17.0026422 164.577986,17.0022359 164.652353,17.008024 L164.7414,17.0180752 C165.955477,17.1996915 167.04143,19.2695942 166.809883,32.339611 C166.514025,49.0423331 166.810632,52.5084833 163.935945,52.5092327 C161.231282,52.5107316 161.611777,47.9001898 161.485195,35.0458312 C160.808875,35.0166357 159.559855,35.0077501 158.862228,35.0050458 L158.62866,35.0042939 C158.594771,35.0042076 158.563585,35.0041386 158.535377,35.0040834 L158.357344,35.0038627 L158.357344,35.0038627 C157.808322,52.0018633 156.751474,53.2286931 155.272935,53.3553481 C153.793647,53.4820031 152.219236,52.2559227 151.864956,46.6321409 C149.947499,51.2831524 147.539443,52.4545238 144.409345,52.2394351 C140.481555,51.968888 136.841383,47.7308168 137.100539,39.1475047 C137.438341,27.9419095 143.006456,20.0750601 148.173102,15.9329169 C149.947499,14.5097344 151.707664,14.423549 152.229722,16.2289449 Z M81.1141001,15.358098 C85.7586895,15.358098 87.9375494,19.8554748 88.7592096,22.0355896 C89.5816187,24.2149549 88.4850732,28.1465061 86.4987079,25.4492791 C86.275963,25.1467722 86.0478239,24.8304033 85.8157073,24.5091547 L85.5823173,24.1866121 C85.3868082,23.9170256 85.1888649,23.6461295 84.9893072,23.3791219 L84.7491156,23.0609118 C82.8623666,20.5880985 80.8619507,18.6425821 79.4288354,21.54171 C77.537594,25.366841 78.2513972,27.9381623 81.6893371,31.1659913 C85.5010312,34.7438077 89.7868465,37.787275 89.7868465,41.2009645 C89.7868465,44.6146541 88.7592096,45.7657907 83.5393832,48.8916961 C78.3188078,52.0176015 76.1406969,52.5519507 74.0442276,52.5931698 C71.9477584,52.6343889 70.7912924,51.6885983 71.0204883,48.8916961 C71.2489353,46.0947939 72.8375781,44.7375619 73.7903144,44.6146541 C74.7430507,44.4909968 75.1947016,47.3291181 76.0995015,46.9176767 C76.5378292,46.71819 78.0488057,45.9290408 79.6438501,45.0845242 L80.2440016,44.7662787 C81.7445779,43.9693943 83.2104331,43.1825464 83.8270017,42.8459807 C85.1834525,42.1055361 85.3886803,40.9956186 83.744611,39.4735102 C82.1005417,37.9521513 78.11358,33.510233 76.0171108,31.3301182 C73.9206416,29.1507528 73.7828244,27.4232985 73.7903144,24.9966186 C73.8030475,20.5959194 76.4695107,15.358098 81.1141001,15.358098 Z M180.079881,16.8210757 C179.74133,19.1465815 174.501281,19.4006409 174.374698,19.4006409 C173.720891,28.1071606 173.611609,31.7952726 173.60505,32.0314729 L173.60472,32.043658 L173.60472,32.043658 C177.16325,32.0016895 178.008878,31.4516021 177.966934,32.8890239 C177.92424,34.3271952 176.719838,34.7925961 173.60472,35.0039376 C173.007812,35.0440409 172.904001,35.2387963 172.895952,39.0930443 L172.895411,39.6549491 L172.895411,39.6549491 C172.895411,44.0526506 172.599553,49.0843766 172.599553,49.0843766 C175.219578,48.9996901 178.769869,47.6469547 178.896451,49.0843766 C179.023033,50.5217984 173.10663,52.2132797 170.52855,52.4673392 C170.476988,52.4724054 170.425867,52.4774551 170.375193,52.4823479 L170.224523,52.4964153 C167.835566,52.70947 166.497277,52.2375615 167.10559,35.5532756 C167.707043,19.0716377 168.260558,17.1373385 169.725615,16.8210757 C177.16325,15.2142809 180.417683,14.49557 180.079881,16.8210757 Z M27.5857505,15.8196768 C27.9168114,15.9006161 28.1512505,16.1928969 28.1737207,16.5338911 C28.2478723,17.6625446 28.2014339,18.393996 28.1317763,18.8489048 C28.0741028,19.232617 27.7363008,19.5054123 27.3483155,19.4986674 C26.8469805,19.4891745 26.3216772,19.4860102 26.027179,19.4849555 L25.7903819,19.4844281 L25.7903819,19.4844281 C25.7903819,19.4844281 26.9663222,27.6562987 27.5145949,36.6495533 C28.0621187,45.6428079 27.1168725,51.9748086 23.7875385,52.2775815 C20.7735363,52.5518758 19.8964497,50.4137295 18.8006532,48.9875492 C19.7790429,47.1761846 21.1509238,46.4139374 21.4336668,46.2713925 L21.4858415,46.2461054 L21.4858415,46.2461054 C21.4858415,46.2461054 22.122497,47.4714364 22.7726347,48.3018135 C22.9681254,48.5521258 23.3680949,48.4299674 23.380079,48.1122057 C23.5620876,43.2198752 22.8452883,27.0365136 21.7112925,19.5376382 C20.1361318,19.3577731 19.1826465,19.2168788 18.6321267,19.123199 C18.2433923,19.0572485 17.9700049,18.7140059 17.9902281,18.320551 C18.0224354,17.6932715 18.1033281,16.698018 18.3040618,15.636814 C18.3707234,15.2860771 18.664334,15.01553 19.0208611,14.9945457 C22.7988499,14.7689649 26.2809812,15.5004163 27.5857505,15.8196768 Z M37.4047765,15.9745107 C37.5860361,17.0222249 37.5665619,17.8683402 37.5148805,18.4101838 C37.4781791,18.7879005 37.1853176,19.0884251 36.8085673,19.1341408 C36.3793866,19.1866015 35.8775522,19.2652924 35.8648191,19.34848 C35.5012653,21.6793246 35.1868526,24.1974156 34.9162785,26.7399702 L34.8322851,27.5435055 C34.7359785,28.481469 34.6455466,29.4204273 34.5607241,30.3522399 L34.4893867,31.1489967 C33.7313128,39.7574566 33.4503804,47.5492473 33.4342838,48.0067581 L33.433544,48.0279689 L33.433544,48.0279689 C34.3787902,47.863842 35.160004,47.5760579 35.2011993,48.8096326 C35.2416457,50.0432074 34.5023763,50.8248711 32.0770932,51.6065348 C30.440514,52.1333896 29.1035373,52.1738593 28.4069613,52.1446312 C28.0826415,52.1303919 27.8242342,51.8853257 27.7688077,51.5653157 C27.57107,50.4336645 27.6991501,49.4616436 27.798768,48.9617685 C27.8452064,48.7294428 28.0152309,48.5435822 28.2376858,48.4626429 C28.9132897,48.2168273 29.6518101,48.069188 29.6518101,48.069188 C29.7294521,34.1212272 30.8846908,25.8469412 31.4894906,22.2404598 L31.5392537,21.9467758 C31.756964,20.674998 31.8884409,20.0741533 31.8441522,20.0889247 C30.1117001,20.3332414 29.2211314,20.0529517 29.0908042,18.3224996 C29.061593,17.9350402 29.2346135,17.5528269 29.5476982,17.3227495 C31.5258244,15.8665916 35.0266808,15.427421 36.5329329,15.3030144 C36.9523766,15.2685402 37.3328719,15.5593221 37.4047765,15.9745107 Z M15.0882024,18.9799065 C16.1330665,19.7690646 14.8605044,21.5422346 12.4516995,24.4073356 C16.7240326,24.2709379 18.496931,24.0888245 18.4512416,25.6356643 C18.4055522,27.1817547 16.7240326,26.9996413 14.4515469,26.7268459 C14.4515469,26.7463313 14.5034882,26.808504 14.5943865,26.9026273 L14.7583289,27.066433 C15.0748524,27.374907 15.5942819,27.8495191 16.1137386,28.3225062 L16.4237929,28.6047613 C16.9351454,29.0703879 17.4059495,29.5008367 17.6333265,29.7283446 C18.269233,30.3653668 18.6332502,31.1380373 17.6333265,32.2292188 C16.6334028,33.3211498 15.9967473,33.8210249 14.4515469,32.6391613 C12.9063464,31.4565484 10.8608096,29.2734358 10.8608096,29.2734358 C10.8608096,29.2734358 11.133448,35.1400356 11.0885076,36.2312171 C11.0428182,37.3231481 10.8608096,37.7323412 9.86088595,37.7323412 C8.86096225,37.7323412 8.13367693,36.8135303 8.22505572,33.7258463 C8.31568551,30.6381622 8.54263449,28.9549247 8.54263449,28.9549247 C8.54263449,28.9549247 7.81259455,30.0301017 7.04560288,31.1792654 L6.66223647,31.7553776 C6.15553216,32.5193875 5.68374472,33.2421182 5.45223362,33.6269205 C4.81557808,34.6851268 4.6792589,36.5954439 3.40669684,36.1405351 C2.13413477,35.6856263 1.67948782,34.2759337 3.40669684,31.6386618 C5.13390585,29.0006404 6.63416589,27.045357 6.63416589,27.045357 C3.95197358,27.136039 3.17974786,27.1817547 2.99773928,26.1355394 C2.8157307,25.0893241 3.63439482,24.8165287 6.77048508,25.1350398 C2.99773928,22.4520522 2.45246254,21.633666 3.54301602,20.0868262 C4.63431851,18.5407359 6.45215731,20.6331665 8.4976941,22.8155296 C8.17936633,19.9054623 8.22505572,19.1777581 9.45192839,18.9956447 C10.6788011,18.8135313 10.9971288,20.2239734 10.8151202,22.8155296 C12.6337081,19.8140309 14.0425893,18.1914978 15.0882024,18.9799065 Z M62.7494735,25.223006 L62.7053926,25.2323918 C61.2972603,25.7015399 60.9092749,31.3845274 60.9092749,31.3845274 C60.9092749,31.3845274 62.0919562,31.7862261 63.1488044,31.5539003 C63.4027176,27.5788818 63.2753865,25.0420346 62.7053926,25.2323918 Z M72.0949382,17.389974 C73.4064486,19.2216002 74.4745319,20.7789321 73.2544003,22.5191269 C72.0335197,24.2585722 70.0201902,25.3887245 68.9828161,24.0757094 C68.0061116,22.8398863 68.3169493,22.1406608 69.0741949,21.4197015 C69.7812571,20.7467063 69.7879981,20.0025145 69.3962677,19.3137811 C69.3410285,19.216604 69.2836307,19.1199317 69.2252684,19.0236836 L69.0484825,18.736131 C68.4575129,17.7813263 67.8895163,16.8608709 68.5386553,15.894096 C69.318371,14.7339662 70.7826788,15.5583478 72.0949382,17.389974 Z" id="jikas" fill="#77CA99"></path>
                <path d="M263.04702,5 C267.980607,5 270.188827,11.025956 270.188827,16.9989962 C270.188827,20.9909178 268.429232,23.7218929 265.334105,24.5775813 C265.361255,26.0979446 265.50347,28.033891 265.768508,30.4718929 C265.945631,32.2219885 265.520278,33.6132887 264.570019,34.3928298 C263.707676,35.098805 262.487207,35.2846558 260.930593,34.9426386 C260.781913,36.084847 260.625476,37.2541587 260.466453,38.4376673 L260.377339,39.1025563 L260.377339,39.1025563 L260.199652,40.4348192 C259.551677,45.3204639 258.958968,50.1740459 258.958968,53.6903442 C258.958968,55.8960325 260.748299,57.6925908 262.953933,57.7080784 C265.16086,57.6925908 266.950191,55.8960325 266.950191,53.6903442 C266.950191,51.1323136 266.563623,48.3781071 266.223598,45.9465583 C265.93141,43.8531549 265.654736,41.8759082 265.654736,40.2884321 C265.654736,36.7443595 268.544298,33.8597992 272.094516,33.8597992 C275.644733,33.8597992 278.533002,36.7443595 278.533002,40.2884321 C278.533002,42.2553537 278.234349,44.1203155 277.918889,46.0949809 C277.550422,48.3910134 277.170318,50.767065 277.170318,53.6903442 C277.170318,55.9050669 278.975163,57.7080784 281.193726,57.7080784 L281.289398,57.7080784 C283.507961,57.7080784 285.312806,55.9050669 285.312806,53.6903442 C285.312806,50.7554493 284.981832,48.1070746 284.52157,44.4416826 C284.113601,41.1895385 283.589992,37.0123437 283.096917,31.001616 L282.555042,31 C281.329095,31 279.802811,31 278.821536,29.8779968 C278.034444,28.9757138 277.7833,27.5390816 278.051274,25.4874928 L278.091405,25.1975662 C278.226039,24.2198762 278.508253,22.1864892 277.714689,21.7405481 C275.164527,20.3067132 275.009971,18.1925265 275.000604,15.7364082 L275,6.65005981 C275,6.28992667 275.289981,6 275.647279,6 C276.004577,6 276.294558,6.28992667 276.294558,6.65005981 L276.294558,15.2568516 C276.294558,18.0898123 276.381294,19.500442 278.346433,20.6055437 C279.912848,21.4857247 279.574969,23.9221488 279.373018,25.3769827 L279.335476,25.6578085 C279.120579,27.2920589 279.275926,28.4257632 279.795044,29.021218 C280.352108,29.657464 281.355189,29.6972294 282.355211,29.6997147 L282.992934,29.7000608 C282.881338,28.2653481 282.771879,26.7314087 282.666304,25.0873805 C282.654668,24.8976577 282.628811,24.6743786 282.602953,24.4330306 C282.45298,23.032696 282.22285,20.9173518 283.656641,20.11587 C285.620509,19.0188337 285.707131,17.6172084 285.707131,14.8062141 L285.707131,6.26094646 C285.707131,5.90473231 285.996734,5.61563098 286.353566,5.61563098 C286.710397,5.61563098 287,5.90473231 287,6.26094646 L287,14.8062141 C287,17.4455545 287,19.7260994 284.287561,21.2425908 C283.599755,21.6271989 283.780757,23.2959847 283.888065,24.2936424 C283.916508,24.5569312 283.943658,24.7995698 283.956587,25.0060707 C284.064419,26.6816659 284.176237,28.2425044 284.290188,29.7001598 L302.352721,29.6998804 C302.710019,29.6998804 303,29.9911072 303,30.3499402 C303,30.7087732 302.710019,31 302.352721,31 L284.394684,31.0016505 C284.883436,36.9305002 285.400524,41.0616184 285.804096,44.2816444 C286.270822,47.9922084 286.605675,50.6754302 286.605675,53.6903442 C286.605675,56.5891013 284.268168,58.950956 281.377314,58.9974187 C281.366971,58.9987094 281.356628,58.9987094 281.346285,58.9987094 C281.332063,59 281.317842,59 281.30362,58.9987094 L281.193726,58.9987094 C278.2615,58.9987094 275.87745,56.6174952 275.87745,53.6903442 C275.87745,50.6638145 276.28341,48.1277247 276.641535,45.8910612 C276.950531,43.968021 277.240133,42.1533939 277.240133,40.2884321 C277.240133,37.4542065 274.932363,35.1504302 272.094516,35.1504302 C269.255376,35.1504302 266.947605,37.4542065 266.947605,40.2884321 C266.947605,41.7868547 267.217814,43.7215105 267.504831,45.7684512 C267.85132,48.2413002 268.241766,51.04326 268.241766,53.6903442 C268.241766,56.5891013 265.905553,58.950956 263.013405,58.9974187 C262.994012,59.0012906 262.975912,59 262.953933,58.9987094 C262.935833,59 262.91644,59.0012906 262.895754,58.9974187 C260.003606,58.950956 257.6661,56.5891013 257.6661,53.6903442 C257.6661,50.2612409 258.210712,45.644625 258.827902,40.9496915 L259.00581,39.6071091 C259.065499,39.15951 259.125438,38.7121587 259.18522,38.2660134 C259.353293,37.0102294 259.520073,35.7699331 259.675218,34.5619025 C258.938283,34.2521511 258.255648,33.7849426 257.539398,33.2957935 C256.066385,32.2875919 254.308068,31.0849457 251.227947,30.6255993 C251.212757,32.4769634 251.204444,34.4660501 251.204444,36.6049383 C251.204444,37.8475964 251.560037,40.6591104 251.938247,43.6363122 C252.435826,47.5623352 253,52.0113101 253,54.6765529 C253,57.5825607 250.728225,59.9526722 247.917407,59.9979774 L247.902329,59.9991101 L247.902329,59.9991101 L247.83322,59.9992719 C247.823168,59.9992719 247.813116,59.9992719 247.804321,59.9979774 C244.993502,59.9526722 242.720471,57.5825607 242.720471,54.6765529 C242.720471,50.1395563 243.984522,44.5463003 244.82136,40.8442147 C245.138001,39.4371632 245.39056,38.3226542 245.438307,37.8307687 C245.597884,36.1829523 245.315169,36.0677475 244.693195,35.8140382 C243.490713,35.3234471 242.384982,34.5882077 242.067084,31.0427487 C242.050255,30.8550094 242.036604,30.652407 242.026118,30.4360973 L230.646434,30.4344646 C230.28831,30.4344646 230,30.1453633 230,29.7891491 C230,29.432935 230.28831,29.1438337 230.646434,29.1438337 L242.000171,29.1437314 C242.020316,22.9164004 243.817048,10.1111509 247.211247,6.27631345 C247.961385,5.4297526 248.778118,5 249.638829,5 C250.131382,5 250.515875,5.15274339 250.813668,5.46729123 C251.713331,6.41870136 251.658045,8.65289711 251.477107,16.0583629 C251.395202,19.4473411 251.290732,23.7342837 251.23805,29.3245338 C254.732474,29.810933 256.73107,31.1786058 258.271162,32.2310229 C258.832267,32.6143403 259.341658,32.9641013 259.845876,33.2183556 C260.25313,29.9620937 260.558247,26.9949331 260.599619,24.6537285 C257.488977,23.7928776 255.719039,21.0347992 255.719039,16.9989962 C255.719039,11.2195507 258.012588,5 263.04702,5 Z M243.318571,30.9236607 C243.591234,33.9720564 244.423045,34.3111985 245.156849,34.6102131 C246.168341,35.023138 246.923505,35.5331456 246.688537,37.9602123 C246.631994,38.5349417 246.385718,39.6274453 246.043946,41.1380516 C245.271191,44.5605391 243.976983,50.287122 243.976983,54.6765529 C243.976983,56.8887433 245.715997,58.6905975 247.860864,58.7048363 C250.004474,58.6905975 251.743487,56.8887433 251.743487,54.6765529 C251.743487,52.0954484 251.184339,47.6891898 250.691786,43.8045888 C250.293472,40.6526382 249.947931,37.9317347 249.947931,36.6049383 C249.947931,34.4132488 249.956628,32.3787804 249.971434,30.4872167 C249.504516,30.4528774 249.009151,30.4344646 248.484145,30.4344646 L243.284384,30.4350964 C243.293528,30.6084223 243.304919,30.7715223 243.318571,30.9236607 Z M263,52 C264.103535,52 265,52.897444 265,54.0006311 C265,55.102556 264.103535,56 263,56 C261.896465,56 261,55.102556 261,54.0006311 C261,52.897444 261.896465,52 263,52 Z M263.04702,6.29063098 C258.900789,6.29063098 257.011908,11.8416348 257.011908,16.9989962 C257.011908,19.1065966 257.579477,22.7539197 261.376633,23.5141013 C261.679164,23.5734704 261.896366,23.8393403 261.896366,24.1465105 C261.896366,26.6890535 261.553756,30.0046845 261.094788,33.6558795 C262.019189,33.8739962 263.085806,33.9398184 263.749047,33.3964627 C264.56614,32.7253346 264.558383,31.3611377 264.482104,30.6074092 C264.17828,27.80674 264.037357,25.7275335 264.037357,24.0690727 C264.037357,23.7619025 264.254559,23.4973231 264.55709,23.4366635 C268.143508,22.7190727 268.895958,19.5389579 268.895958,16.9989962 C268.895958,11.6686902 267.087235,6.29063098 263.04702,6.29063098 Z M224.5,28 C225.878443,28 227,29.1205298 227,30.4993377 C227,31.8781457 225.878443,33 224.5,33 C223.121557,33 222,31.8781457 222,30.4993377 C222,29.1205298 223.121557,28 224.5,28 Z M249.638829,6.29443555 C249.146276,6.29443555 248.642414,6.58309467 248.139809,7.14876301 C244.991333,10.7065254 243.276855,23.2058731 243.256561,29.1434141 L248.484145,29.1438337 C249.009817,29.1438337 249.509,29.1615689 249.983639,29.1947934 C250.03579,23.6528342 250.139627,19.3967168 250.221851,16.026002 C250.278481,13.7072465 250.325096,11.8004169 250.327919,10.3076729 L250.327043,9.79801949 C250.315822,7.82820935 250.209402,6.68421116 249.912749,6.37210168 C249.887618,6.3436241 249.841127,6.29443555 249.638829,6.29443555 Z M282.5,6 C282.776,6 283,6.29686747 283,6.6626506 L283,16.3373494 C283,16.7031325 282.776,17 282.5,17 C282.224,17 282,16.7031325 282,16.3373494 L282,6.6626506 C282,6.29686747 282.224,6 282.5,6 Z M278.5,6 C278.776,6 279,6.29686747 279,6.6626506 L279,16.3373494 C279,16.7031325 278.776,17 278.5,17 C278.224,17 278,16.7031325 278,16.3373494 L278,6.6626506 C278,6.29686747 278.224,6 278.5,6 Z M280.5,1.77635684e-14 C281.878443,1.77635684e-14 283,1.1205298 283,2.49933775 C283,3.8781457 281.878443,5 280.5,5 C279.121557,5 278,3.8781457 278,2.49933775 C278,1.1205298 279.121557,1.77635684e-14 280.5,1.77635684e-14 Z" id="forks" fill="#A84418"></path>
            </g>
        </g>
    </g>
</svg>