<?xml version="1.0" encoding="UTF-8"?>
<svg width="288px" height="264px" viewBox="0 0 288 264" version="1.1" xmlns="http://www.w3.org/2000/svg" xmlns:xlink="http://www.w3.org/1999/xlink">
    <title>truck</title>
    <g id="Page-1" stroke="none" stroke-width="1" fill="none" fill-rule="evenodd">
        <g id="web" transform="translate(-931.000000, -227.000000)">
            <g id="heroPic" transform="translate(623.000000, -105.000000)">
                <g id="truck" transform="translate(308.717817, 332.323275)">
                    <path d="M121.282183,58.676725 C190.94885,60.3831021 225.782183,61.2362906 225.782183,61.2362906 C225.782183,61.2362906 228.585356,62.7473376 231.575406,64.3591211 L232.218038,64.7055312 C235.435966,66.4401516 238.653894,68.1747719 238.653894,68.1747719 C238.653894,68.1747719 239.935966,75.7592446 241.218038,83.8106541 L241.371805,84.778609 C242.600625,92.5328903 243.782183,100.45512 243.782183,102.248157 C243.782183,105.983652 249.28023,118.12578 249.28023,120.985611 C249.28023,122.892165 252.424092,122.892165 258.711817,120.985611 C268.37655,127.033178 273.758586,130.422059 274.857925,131.152253 C276.506933,132.247545 279.282183,141.69754 279.282183,141.69754 C279.282183,141.69754 278.339738,146.011819 277.162673,150.657967 L276.964444,151.434715 C275.630056,156.624415 274.054562,161.950687 273.208917,161.950687 C272.109578,161.950687 269.693395,166.305548 265.960367,175.01527 L265.960367,175.01527 L174.784136,185.176725 C169.225672,198.843392 162.192753,205.676725 153.68538,205.676725 C145.178008,205.676725 139.376942,197.925432 136.282183,182.422847 L136.282183,182.422847 L82.6424308,182.422847 L69.7841364,185.176725 C63.6014349,194.310663 59.2681016,199.406952 56.7841364,200.465591 C53.0581887,202.053551 44.8192927,204.762663 38.994788,200.465591 C35.1117849,197.600877 32.5409167,191.586629 31.2821833,182.422847 L31.2821833,182.422847 L18.2821833,181.951497 L14.7821833,58.676725 Z M94.2831599,78.7824275 L65.4478239,93.926725 L35.2907724,96.176725 L35.2907724,96.176725 L35.2907724,128.925748 L35.2907724,128.925748 L94.2831599,128.925748 L94.2831599,78.7824275 Z M235.532183,69.676725 L157.782183,71.176725 L166.446439,115.176725 C218.17092,113.676725 244.03316,112.926725 244.03316,112.926725 C244.03316,112.926725 241.199501,98.5100584 235.532183,69.676725 Z" id="Path-5" fill="#F8C836"></path>
                    <path d="M273.117378,151.824113 C272.486972,157.416301 268.771312,161.950687 264.817915,161.950687 C260.865854,161.950687 258.171934,157.416301 258.803676,151.824113 C259.434083,146.231926 263.149742,141.69754 267.101803,141.69754 C271.055201,141.69754 273.747785,146.231926 273.117378,151.824113 L273.117378,151.824113 Z M236.437598,111.243025 L170.855279,111.243025 C169.440871,111.243025 168.228139,110.234641 167.970367,108.844274 L162.057634,77.0047344 C161.722397,75.1989935 163.107421,73.5334913 164.943881,73.5334913 L231.01904,73.5334913 C233.073204,73.5334913 234.83487,74.9986524 235.210175,77.0180904 L240.628733,106.202443 C241.114895,108.822904 239.10347,111.243025 236.437598,111.243025 L236.437598,111.243025 Z M215.668906,151.824113 C215.0385,157.416301 211.322841,161.950687 207.369443,161.950687 C203.417382,161.950687 200.723462,157.416301 201.355204,151.824113 C201.985611,146.231926 205.70127,141.69754 209.654667,141.69754 C213.606729,141.69754 216.299313,146.231926 215.668906,151.824113 L215.668906,151.824113 Z M185.541615,178.286498 L181.783217,178.286498 L172.767868,178.286498 C172.767868,177.924549 172.747834,177.559928 172.687732,177.196643 C170.787163,165.702407 162.972525,157.675408 153.684713,157.675408 C144.3969,157.675408 136.583598,165.702407 134.683029,177.196643 C134.622927,177.559928 134.602893,177.924549 134.602893,178.286498 L66.8301774,178.286498 C66.8301774,177.924549 66.8101433,177.559928 66.7500409,177.196643 C64.8508075,165.702407 57.0361699,157.675408 47.7483575,157.675408 C38.4618808,157.675408 30.6472431,165.702407 28.7466741,177.196643 C28.6865718,177.559928 28.6665377,177.924549 28.6665377,178.286498 L25.8991596,178.286498 L19.6191346,178.286498 L19.6191346,98.6843102 L30.9811449,98.6843102 L30.9811449,129.761218 C30.9811449,131.974319 32.7748654,133.76804 34.9879665,133.76804 L95.9076814,133.76804 C98.1221181,133.76804 99.9145029,131.974319 99.9145029,129.761218 L99.9145029,74.775606 C99.9145029,74.7235173 99.9024825,74.676771 99.8998113,74.626018 C99.8931332,74.4470466 99.8771059,74.2694109 99.846387,74.0904395 C99.8303597,73.9996182 99.8103256,73.9101325 99.7876203,73.8193112 C99.771593,73.7525309 99.7649149,73.6844149 99.7448808,73.6162989 C99.7195043,73.5361625 99.6821073,73.4613685 99.6527239,73.3825677 C99.6193338,73.2957532 99.5886148,73.2076031 99.5498822,73.1221243 C99.4804306,72.9685295 99.397623,72.8242839 99.3108085,72.6827095 C99.2734115,72.6226072 99.2440281,72.5598337 99.2026243,72.5010669 C99.0690636,72.3060683 98.9194756,72.1244257 98.7538603,71.9574748 C98.7218057,71.9240846 98.6844087,71.8987081 98.6496829,71.8666535 C98.5121154,71.735764 98.3678698,71.6142238 98.2129394,71.5060396 C98.1434878,71.4566221 98.0700294,71.4152183 97.9979066,71.3711433 C97.8670171,71.2910068 97.7334564,71.2162128 97.5932177,71.1521037 C97.51041,71.1120355 97.4276024,71.0773097 97.3407879,71.0439195 C97.1925355,70.9864884 97.0402763,70.9410778 96.8840102,70.9023451 C96.8038738,70.882311 96.7264086,70.8582701 96.6449366,70.8422428 C96.4045273,70.7968322 96.1601112,70.7687844 95.9076814,70.7687844 L33.9461929,70.7687844 C33.156849,70.7687844 32.3848681,71.0011801 31.7277494,71.4379236 L19.6191346,79.4862925 L19.6191346,63.6847239 L98.6136216,63.6847239 L147.657117,63.6847239 L157.569994,118.019895 C157.879855,119.714781 158.985738,121.155901 160.543055,121.891821 L191.290068,136.420556 L185.541615,178.286498 Z M153.684713,200.465591 C146.636713,200.465591 140.924322,192.381161 140.924322,182.409518 C140.924322,172.437875 146.636713,164.353444 153.684713,164.353444 C160.732712,164.353444 166.446439,172.437875 166.446439,182.409518 C166.446439,192.381161 160.732712,200.465591 153.684713,200.465591 L153.684713,200.465591 Z M47.7483575,200.465591 C40.7003584,200.465591 34.9879665,192.381161 34.9879665,182.409518 C34.9879665,172.437875 40.7003584,164.353444 47.7483575,164.353444 C54.7963566,164.353444 60.5100842,172.437875 60.5100842,182.409518 C60.5100842,192.381161 54.7963566,200.465591 47.7483575,200.465591 L47.7483575,200.465591 Z M91.9008598,82.2509994 L91.9008598,125.754397 L38.994788,125.754397 L38.994788,98.6843102 L65.9673751,98.6843102 C66.756719,98.6843102 67.5286999,98.4505789 68.1871543,98.0138354 L91.9008598,82.2509994 Z M35.156253,78.7824275 L82.6424308,78.7824275 L64.757315,90.6706671 L17.2831577,90.6706671 L35.156253,78.7824275 Z M283.73412,128.43496 L251.925299,113.404037 L241.703897,57.3846648 C241.240442,54.8456756 239.030012,52.9998664 236.448283,52.9998664 L152.112703,52.9998664 L98.6136216,52.9998664 L14.2767059,52.9998664 C11.3263496,52.9998664 8.93427714,55.3919389 8.93427714,58.3422952 L8.93427714,86.5890515 L1.7887787,91.3398063 C0.316939585,92.3174707 -0.338843543,94.1445814 0.171358402,95.8354601 C0.682895953,97.5263388 2.24154954,98.6843102 4.00722224,98.6843102 L8.93427714,98.6843102 L8.93427714,183.628927 C8.93427714,186.579283 11.3263496,188.971356 14.2767059,188.971356 L26.2878213,188.971356 C28.5409906,200.649905 36.5880239,209.30464 46.1977176,209.30464 L55.5469679,209.30464 C65.1579972,209.30464 73.2050305,200.649905 75.4568642,188.971356 L98.6136216,188.971356 L104.227179,188.971356 C106.479012,200.649905 114.526046,209.30464 124.137075,209.30464 L131.552366,209.30464 C135.306758,209.30464 138.815398,207.965026 141.843219,205.661103 C144.869705,207.969032 148.378345,209.30464 152.134073,209.30464 L161.483323,209.30464 C171.094352,209.30464 179.141386,200.649905 181.393219,188.971356 L190.200213,188.971356 L210.944864,188.971356 C213.196698,200.649905 221.243731,209.30464 230.85476,209.30464 L238.270051,209.30464 C247.881081,209.30464 255.928114,200.649905 258.179948,188.971356 L274.537129,188.971356 C277.207007,188.971356 279.465519,187.001335 279.83014,184.355497 L286.744578,133.992422 C287.062453,131.681821 285.843044,129.431323 283.73412,128.43496 L283.73412,128.43496 Z" id="Fill-1" fill="#000000"></path>
                    <path d="M244.688383,262.676725 C237.211383,262.676725 233.376383,259.136725 229.994383,256.013725 C226.892383,253.149725 224.213383,250.676725 218.693383,250.676725 C213.172383,250.676725 210.494383,253.149725 207.393383,256.013725 C204.010383,259.136725 200.176383,262.676725 192.701383,262.676725 C185.225383,262.676725 181.392383,259.136725 178.009383,256.013725 C174.909383,253.149725 172.230383,250.676725 166.710383,250.676725 C161.190383,250.676725 158.511383,253.149725 155.411383,256.013725 C152.028383,259.136725 148.195383,262.676725 140.719383,262.676725 C133.244383,262.676725 129.411383,259.136725 126.028383,256.013725 C122.927383,253.149725 120.249383,250.676725 114.729383,250.676725 C109.209383,250.676725 106.532383,253.149725 103.431383,256.012725 C100.049383,259.136725 96.2153833,262.676725 88.7413833,262.676725 C81.2663833,262.676725 77.4333833,259.136725 74.0513833,256.012725 C70.9513833,253.149725 68.2733833,250.676725 62.7543833,250.676725 C57.2363833,250.676725 54.5593833,253.149725 51.4593833,256.012725 C48.0773833,259.136725 44.2443833,262.676725 36.7703833,262.676725 C29.2953833,262.676725 25.4613833,259.136725 22.0803833,256.012725 C18.9793833,253.149725 16.3013833,250.676725 10.7823833,250.676725 C9.40138332,250.676725 8.28238332,249.557725 8.28238332,248.176725 C8.28238332,246.795725 9.40138332,245.676725 10.7823833,245.676725 C18.2563833,245.676725 22.0903833,249.216725 25.4723833,252.340725 C28.5733833,255.203725 31.2513833,257.676725 36.7703833,257.676725 C42.2893833,257.676725 44.9653833,255.203725 48.0663833,252.340725 C51.4483833,249.216725 55.2813833,245.676725 62.7543833,245.676725 C70.2293833,245.676725 74.0623833,249.216725 77.4443833,252.340725 C80.5443833,255.203725 83.2223833,257.676725 88.7413833,257.676725 C94.2603833,257.676725 96.9383833,255.203725 100.039383,252.340725 C103.420383,249.216725 107.254383,245.676725 114.729383,245.676725 C122.205383,245.676725 126.038383,249.216725 129.420383,252.339725 C132.521383,255.203725 135.200383,257.676725 140.719383,257.676725 C146.239383,257.676725 148.917383,255.203725 152.018383,252.340725 C155.401383,249.216725 159.235383,245.676725 166.710383,245.676725 C174.186383,245.676725 178.019383,249.216725 181.402383,252.339725 C184.502383,255.203725 187.181383,257.676725 192.701383,257.676725 C198.221383,257.676725 200.900383,255.203725 204.000383,252.339725 C207.383383,249.216725 211.217383,245.676725 218.693383,245.676725 C226.168383,245.676725 230.003383,249.216725 233.386383,252.339725 C236.488383,255.203725 239.167383,257.676725 244.688383,257.676725 C250.209383,257.676725 252.888383,255.203725 255.990383,252.339725 C259.374383,249.216725 263.208383,245.676725 270.684383,245.676725 C272.065383,245.676725 273.184383,246.795725 273.184383,248.176725 C273.184383,249.557725 272.065383,250.676725 270.684383,250.676725 C265.163383,250.676725 262.484383,253.149725 259.382383,256.013725 C255.999383,259.136725 252.165383,262.676725 244.688383,262.676725" id="Fill-1" fill="#FFFFFF"></path>
                    <path d="M244.688383,17.676725 C237.211383,17.676725 233.376383,14.136725 229.994383,11.013725 C226.892383,8.14972503 224.213383,5.67672503 218.693383,5.67672503 C213.172383,5.67672503 210.494383,8.14972503 207.393383,11.013725 C204.010383,14.136725 200.176383,17.676725 192.701383,17.676725 C185.225383,17.676725 181.392383,14.136725 178.009383,11.013725 C174.909383,8.14972503 172.230383,5.67672503 166.710383,5.67672503 C161.190383,5.67672503 158.511383,8.14972503 155.411383,11.013725 C152.028383,14.136725 148.195383,17.676725 140.719383,17.676725 C133.244383,17.676725 129.411383,14.136725 126.028383,11.013725 C122.927383,8.14972503 120.249383,5.67672503 114.729383,5.67672503 C109.209383,5.67672503 106.532383,8.14972503 103.431383,11.012725 C100.049383,14.136725 96.2153833,17.676725 88.7413833,17.676725 C81.2663833,17.676725 77.4333833,14.136725 74.0513833,11.012725 C70.9513833,8.14972503 68.2733833,5.67672503 62.7543833,5.67672503 C57.2363833,5.67672503 54.5593833,8.14972503 51.4593833,11.012725 C48.0773833,14.136725 44.2443833,17.676725 36.7703833,17.676725 C29.2953833,17.676725 25.4613833,14.136725 22.0803833,11.012725 C18.9793833,8.14972503 16.3013833,5.67672503 10.7823833,5.67672503 C9.40138332,5.67672503 8.28238332,4.55772503 8.28238332,3.17672503 C8.28238332,1.79572503 9.40138332,0.676725026 10.7823833,0.676725026 C18.2563833,0.676725026 22.0903833,4.21672503 25.4723833,7.34072503 C28.5733833,10.203725 31.2513833,12.676725 36.7703833,12.676725 C42.2893833,12.676725 44.9653833,10.203725 48.0663833,7.34072503 C51.4483833,4.21672503 55.2813833,0.676725026 62.7543833,0.676725026 C70.2293833,0.676725026 74.0623833,4.21672503 77.4443833,7.34072503 C80.5443833,10.203725 83.2223833,12.676725 88.7413833,12.676725 C94.2603833,12.676725 96.9383833,10.203725 100.039383,7.34072503 C103.420383,4.21672503 107.254383,0.676725026 114.729383,0.676725026 C122.205383,0.676725026 126.038383,4.21672503 129.420383,7.33972503 C132.521383,10.203725 135.200383,12.676725 140.719383,12.676725 C146.239383,12.676725 148.917383,10.203725 152.018383,7.34072503 C155.401383,4.21672503 159.235383,0.676725026 166.710383,0.676725026 C174.186383,0.676725026 178.019383,4.21672503 181.402383,7.33972503 C184.502383,10.203725 187.181383,12.676725 192.701383,12.676725 C198.221383,12.676725 200.900383,10.203725 204.000383,7.33972503 C207.383383,4.21672503 211.217383,0.676725026 218.693383,0.676725026 C226.168383,0.676725026 230.003383,4.21672503 233.386383,7.33972503 C236.488383,10.203725 239.167383,12.676725 244.688383,12.676725 C250.209383,12.676725 252.888383,10.203725 255.990383,7.33972503 C259.374383,4.21672503 263.208383,0.676725026 270.684383,0.676725026 C272.065383,0.676725026 273.184383,1.79572503 273.184383,3.17672503 C273.184383,4.55772503 272.065383,5.67672503 270.684383,5.67672503 C265.163383,5.67672503 262.484383,8.14972503 259.382383,11.013725 C255.999383,14.136725 252.165383,17.676725 244.688383,17.676725" id="Fill-1-Copy" fill="#FFFFFF" transform="translate(140.733383, 9.176725) scale(-1, 1) translate(-140.733383, -9.176725) "></path>
                </g>
            </g>
        </g>
    </g>
</svg>